<svg class="faux code" xmlns="http://www.w3.org/2000/svg" xmlns:xlink="http://www.w3.org/1999/xlink" width="350" height="310" viewBox="0 0 350 310">
<rect x="0" y="0" width="350" height="310" fill="#282c34"></rect><g class="code block" stroke-linecap="round" stroke-width="5">
<g class="code block" stroke-linecap="round" stroke-width="5">
   <line x1="47.5" y1="50" x2="92.5" y2="50" stroke="#F92672"></line>

   <line x1="97.5" y1="50" x2="162.5" y2="50" stroke="#61aeee"></line>
   <line x1="167.5" y1="50" x2="167.5" y2="50" stroke="#abb2bf"></line>
   <line x1="172.5" y1="50" x2="217.5" y2="50" stroke="#abb2bf"></line>
   <line x1="222.5" y1="50" x2="222.5" y2="50" stroke="#abb2bf"></line>

   <line x1="232.5" y1="50" x2="237.5" y2="50" stroke="#abb2bf"></line></g>

<g class="code block" stroke-linecap="round" stroke-width="5">

   <line x1="62.5" y1="60" x2="72.5" y2="60" stroke="#F92672"></line>
   <line x1="82.5" y1="60" x2="87.5" y2="60" stroke="#abb2bf"></line></g>

<g class="code block" stroke-linecap="round" stroke-width="5">

   <line x1="72.5" y1="70" x2="77.5" y2="70" stroke="#F92672"></line>
   <line x1="87.5" y1="70" x2="142.5" y2="70" stroke="#abb2bf"></line>
   <line x1="147.5" y1="70" x2="237.5" y2="70" stroke="#98c379"></line>
   <line x1="242.5" y1="70" x2="242.5" y2="70" stroke="#abb2bf"></line>
   <line x1="252.5" y1="70" x2="257.5" y2="70" stroke="#abb2bf"></line>

   <line x1="267.5" y1="70" x2="272.5" y2="70" stroke="#d19a66"></line>
   <line x1="277.5" y1="70" x2="282.5" y2="70" stroke="#abb2bf"></line></g>

<g class="code block" stroke-linecap="round" stroke-width="5">

   <line x1="82.5" y1="80" x2="107.5" y2="80" stroke="#F92672"></line>
   <line x1="117.5" y1="80" x2="182.5" y2="80" stroke="#abb2bf"></line>

   <line x1="192.5" y1="80" x2="207.5" y2="80" stroke="#56b6c2"></line>
   <line x1="212.5" y1="80" x2="212.5" y2="80" stroke="#abb2bf"></line>

   <line x1="222.5" y1="80" x2="237.5" y2="80" stroke="#d19a66"></line>
   <line x1="242.5" y1="80" x2="242.5" y2="80" stroke="#abb2bf"></line>
   <line x1="252.5" y1="80" x2="257.5" y2="80" stroke="#abb2bf"></line></g>

<g class="code block" stroke-linecap="round" stroke-width="5">

   <line x1="117.5" y1="90" x2="117.5" y2="90" stroke="#abb2bf"></line>
   <line x1="127.5" y1="90" x2="157.5" y2="90" stroke="#abb2bf"></line>
   <line x1="162.5" y1="90" x2="187.5" y2="90" stroke="#e06c75"></line>
   <line x1="192.5" y1="90" x2="197.5" y2="90" stroke="#abb2bf"></line>
   <line x1="202.5" y1="90" x2="207.5" y2="90" stroke="#abb2bf"></line></g>

<g class="code block" stroke-linecap="round" stroke-width="5">
   <line x1="62.5" y1="100" x2="62.5" y2="100" stroke="#abb2bf"></line>

   <line x1="72.5" y1="100" x2="92.5" y2="100" stroke="#F92672"></line>
   <line x1="102.5" y1="100" x2="112.5" y2="100" stroke="#abb2bf"></line>
   <line x1="122.5" y1="100" x2="127.5" y2="100" stroke="#abb2bf"></line></g>

<g class="code block" stroke-linecap="round" stroke-width="5">

   <line x1="72.5" y1="110" x2="177.5" y2="110" stroke="#b18eb1"></line>
</g>

<g class="code block" stroke-linecap="round" stroke-width="5">
   <line x1="62.5" y1="120" x2="67.5" y2="120" stroke="#abb2bf"></line></g>

<g class="code block" stroke-linecap="round" stroke-width="5">

   <line x1="62.5" y1="130" x2="72.5" y2="130" stroke="#F92672"></line>
   <line x1="82.5" y1="130" x2="82.5" y2="130" stroke="#abb2bf"></line>
   <line x1="87.5" y1="130" x2="97.5" y2="130" stroke="#F92672"></line>
   <line x1="107.5" y1="130" x2="107.5" y2="130" stroke="#abb2bf"></line>
   <line x1="117.5" y1="130" x2="117.5" y2="130" stroke="#abb2bf"></line>

   <line x1="127.5" y1="130" x2="127.5" y2="130" stroke="#d19a66"></line>
   <line x1="137.5" y1="130" x2="137.5" y2="130" stroke="#abb2bf"></line>

   <line x1="147.5" y1="130" x2="147.5" y2="130" stroke="#d19a66"></line>
   <line x1="152.5" y1="130" x2="152.5" y2="130" stroke="#abb2bf"></line>
   <line x1="162.5" y1="130" x2="162.5" y2="130" stroke="#abb2bf"></line>
   <line x1="172.5" y1="130" x2="172.5" y2="130" stroke="#abb2bf"></line>
   <line x1="182.5" y1="130" x2="252.5" y2="130" stroke="#abb2bf"></line>
   <line x1="262.5" y1="130" x2="277.5" y2="130" stroke="#abb2bf"></line>
   <line x1="287.5" y1="130" x2="292.5" y2="130" stroke="#abb2bf"></line></g>

<g class="code block" stroke-linecap="round" stroke-width="5">

   <line x1="72.5" y1="140" x2="77.5" y2="140" stroke="#F92672"></line>
   <line x1="87.5" y1="140" x2="217.5" y2="140" stroke="#abb2bf"></line>
   <line x1="227.5" y1="140" x2="237.5" y2="140" stroke="#abb2bf"></line>

   <line x1="247.5" y1="140" x2="287.5" y2="140" stroke="#56b6c2"></line>
   <line x1="292.5" y1="140" x2="297.5" y2="140" stroke="#abb2bf"></line></g>

<g class="code block" stroke-linecap="round" stroke-width="5">

   <line x1="82.5" y1="150" x2="112.5" y2="150" stroke="#e6c07b"></line>
   <line x1="117.5" y1="150" x2="137.5" y2="150" stroke="#abb2bf"></line>
   <line x1="142.5" y1="150" x2="192.5" y2="150" stroke="#98c379"></line>
   <line x1="197.5" y1="150" x2="207.5" y2="150" stroke="#abb2bf"></line></g>

<g class="code block" stroke-linecap="round" stroke-width="5">
   <line x1="62.5" y1="160" x2="67.5" y2="160" stroke="#abb2bf"></line></g>

<g class="code block" stroke-linecap="round" stroke-width="5">
</g>

<g class="code block" stroke-linecap="round" stroke-width="5">

   <line x1="62.5" y1="180" x2="87.5" y2="180" stroke="#F92672"></line>
   <line x1="97.5" y1="180" x2="102.5" y2="180" stroke="#abb2bf"></line></g>

<g class="code block" stroke-linecap="round" stroke-width="5">

   <line x1="72.5" y1="190" x2="72.5" y2="190" stroke="#abb2bf"></line>
   <line x1="77.5" y1="190" x2="87.5" y2="190" stroke="#e06c75"></line>
   <line x1="92.5" y1="190" x2="92.5" y2="190" stroke="#abb2bf"></line>
</g>

<g class="code block" stroke-linecap="round" stroke-width="5">

   <line x1="82.5" y1="200" x2="82.5" y2="200" stroke="#abb2bf"></line>
   <line x1="87.5" y1="200" x2="147.5" y2="200" stroke="#e06c75"></line>
   <line x1="152.5" y1="200" x2="152.5" y2="200" stroke="#abb2bf"></line>
   <line x1="157.5" y1="200" x2="187.5" y2="200" stroke="#abb2bf"></line>
   <line x1="192.5" y1="200" x2="197.5" y2="200" stroke="#abb2bf"></line>
   <line x1="202.5" y1="200" x2="262.5" y2="200" stroke="#e06c75"></line>
   <line x1="267.5" y1="200" x2="267.5" y2="200" stroke="#abb2bf"></line>
</g>

<g class="code block" stroke-linecap="round" stroke-width="5">

   <line x1="72.5" y1="210" x2="77.5" y2="210" stroke="#abb2bf"></line>
   <line x1="82.5" y1="210" x2="92.5" y2="210" stroke="#e06c75"></line>
   <line x1="97.5" y1="210" x2="97.5" y2="210" stroke="#abb2bf"></line>
</g>

<g class="code block" stroke-linecap="round" stroke-width="5">
   <line x1="62.5" y1="220" x2="67.5" y2="220" stroke="#abb2bf"></line></g>

<g class="code block" stroke-linecap="round" stroke-width="5">
   <line x1="47.5" y1="230" x2="62.5" y2="230" stroke="#abb2bf"></line></g>

<g class="code block" stroke-linecap="round" stroke-width="5">
</g>

<g class="code block" stroke-linecap="round" stroke-width="5">
   <line x1="47.5" y1="250" x2="82.5" y2="250" stroke="#F92672"></line>
   <line x1="92.5" y1="250" x2="167.5" y2="250" stroke="#abb2bf"></line></g>

<g class="code block" stroke-linecap="round" stroke-width="5">
</g>
</g>
</svg>