<svg class="faux code" xmlns="http://www.w3.org/2000/svg" xmlns:xlink="http://www.w3.org/1999/xlink" width="395" height="330" viewBox="0 0 395 330">
<rect x="0" y="0" width="395" height="330" fill="#fbf1c7"></rect><g class="code block" stroke-linecap="square" stroke-width="5">
<g class="code block" stroke-linecap="square" stroke-width="5">
   <line x1="47.5" y1="50" x2="82.5" y2="50" stroke="#9d0006"></line>
   <line x1="87.5" y1="50" x2="117.5" y2="50" stroke="#3c3836"></line></g>

<g class="code block" stroke-linecap="square" stroke-width="5">
   <line x1="47.5" y1="60" x2="72.5" y2="60" stroke="#9d0006"></line>
   <line x1="77.5" y1="60" x2="87.5" y2="60" stroke="#3c3836"></line>

   <line x1="97.5" y1="60" x2="122.5" y2="60" stroke="#9d0006"></line>
   <line x1="132.5" y1="60" x2="202.5" y2="60" stroke="#3c3836"></line>
   <line x1="212.5" y1="60" x2="237.5" y2="60" stroke="#3c3836"></line></g>

<g class="code block" stroke-linecap="square" stroke-width="5">
</g>

<g class="code block" stroke-linecap="square" stroke-width="5">
   <line x1="47.5" y1="80" x2="72.5" y2="80" stroke="#9d0006"></line>
   <line x1="77.5" y1="80" x2="107.5" y2="80" stroke="#3c3836"></line>

   <line x1="117.5" y1="80" x2="142.5" y2="80" stroke="#9d0006"></line>
   <line x1="152.5" y1="80" x2="242.5" y2="80" stroke="#3c3836"></line></g>

<g class="code block" stroke-linecap="square" stroke-width="5">
</g>

<g class="code block" stroke-linecap="square" stroke-width="5">
</g>

<g class="code block" stroke-linecap="square" stroke-width="5">
   <line x1="47.5" y1="110" x2="67.5" y2="110" stroke="#9d0006"></line>

   <line x1="72.5" y1="110" x2="152.5" y2="110" stroke="#076678"></line>
   <line x1="157.5" y1="110" x2="167.5" y2="110" stroke="#3c3836"></line>
</g>

<g class="code block" stroke-linecap="square" stroke-width="5">
   <line x1="72.5" y1="120" x2="127.5" y2="120" stroke="#3c3836"></line>
   <line x1="137.5" y1="120" x2="137.5" y2="120" stroke="#3c3836"></line>

   <line x1="147.5" y1="120" x2="267.5" y2="120" stroke="#79740e"></line>
</g>

<g class="code block" stroke-linecap="square" stroke-width="5">
</g>

<g class="code block" stroke-linecap="square" stroke-width="5">

   <line x1="72.5" y1="140" x2="87.5" y2="140" stroke="#9d0006"></line>
   <line x1="97.5" y1="140" x2="232.5" y2="140" stroke="#3c3836"></line></g>

<g class="code block" stroke-linecap="square" stroke-width="5">
   <line x1="92.5" y1="150" x2="297.5" y2="150" stroke="#3c3836"></line></g>

<g class="code block" stroke-linecap="square" stroke-width="5">
</g>

<g class="code block" stroke-linecap="square" stroke-width="5">
</g>

<g class="code block" stroke-linecap="square" stroke-width="5">
   <line x1="47.5" y1="180" x2="67.5" y2="180" stroke="#9d0006"></line>

   <line x1="72.5" y1="180" x2="132.5" y2="180" stroke="#076678"></line>
   <line x1="137.5" y1="180" x2="147.5" y2="180" stroke="#3c3836"></line>
</g>

<g class="code block" stroke-linecap="square" stroke-width="5">

   <line x1="72.5" y1="190" x2="87.5" y2="190" stroke="#9d0006"></line>
   <line x1="97.5" y1="190" x2="147.5" y2="190" stroke="#3c3836"></line>
   <line x1="152.5" y1="190" x2="257.5" y2="190" stroke="#79740e"></line>
   <line x1="262.5" y1="190" x2="262.5" y2="190" stroke="#3c3836"></line>

   <line x1="272.5" y1="190" x2="277.5" y2="190" stroke="#9d0006"></line>
   <line x1="287.5" y1="190" x2="302.5" y2="190" stroke="#3c3836"></line></g>

<g class="code block" stroke-linecap="square" stroke-width="5">

   <line x1="92.5" y1="200" x2="107.5" y2="200" stroke="#9d0006"></line>
   <line x1="117.5" y1="200" x2="167.5" y2="200" stroke="#3c3836"></line>
   <line x1="172.5" y1="200" x2="277.5" y2="200" stroke="#79740e"></line>
   <line x1="282.5" y1="200" x2="282.5" y2="200" stroke="#3c3836"></line>

   <line x1="292.5" y1="200" x2="297.5" y2="200" stroke="#9d0006"></line>
   <line x1="307.5" y1="200" x2="342.5" y2="200" stroke="#3c3836"></line></g>

<g class="code block" stroke-linecap="square" stroke-width="5">
   <line x1="112.5" y1="210" x2="237.5" y2="210" stroke="#3c3836"></line>
   <line x1="247.5" y1="210" x2="262.5" y2="210" stroke="#3c3836"></line></g>

<g class="code block" stroke-linecap="square" stroke-width="5">
</g>

<g class="code block" stroke-linecap="square" stroke-width="5">
</g>

<g class="code block" stroke-linecap="square" stroke-width="5">
   <line x1="47.5" y1="240" x2="67.5" y2="240" stroke="#9d0006"></line>

   <line x1="72.5" y1="240" x2="187.5" y2="240" stroke="#076678"></line>
   <line x1="192.5" y1="240" x2="202.5" y2="240" stroke="#3c3836"></line>
</g>

<g class="code block" stroke-linecap="square" stroke-width="5">

   <line x1="72.5" y1="250" x2="87.5" y2="250" stroke="#9d0006"></line>
   <line x1="97.5" y1="250" x2="147.5" y2="250" stroke="#3c3836"></line>
   <line x1="152.5" y1="250" x2="257.5" y2="250" stroke="#79740e"></line>
   <line x1="262.5" y1="250" x2="262.5" y2="250" stroke="#3c3836"></line>

   <line x1="272.5" y1="250" x2="277.5" y2="250" stroke="#9d0006"></line>
   <line x1="287.5" y1="250" x2="302.5" y2="250" stroke="#3c3836"></line></g>

<g class="code block" stroke-linecap="square" stroke-width="5">
   <line x1="92.5" y1="260" x2="107.5" y2="260" stroke="#3c3836"></line>
   <line x1="117.5" y1="260" x2="117.5" y2="260" stroke="#3c3836"></line>
   <line x1="127.5" y1="260" x2="127.5" y2="260" stroke="#3c3836"></line>
   <line x1="132.5" y1="260" x2="132.5" y2="260" stroke="#8f3f71"></line>
   <line x1="137.5" y1="260" x2="137.5" y2="260" stroke="#3c3836"></line>

   <line x1="147.5" y1="260" x2="147.5" y2="260" stroke="#8f3f71"></line>
   <line x1="152.5" y1="260" x2="152.5" y2="260" stroke="#3c3836"></line>

   <line x1="162.5" y1="260" x2="167.5" y2="260" stroke="#8f3f71"></line>
   <line x1="172.5" y1="260" x2="172.5" y2="260" stroke="#3c3836"></line>

   <line x1="182.5" y1="260" x2="187.5" y2="260" stroke="#8f3f71"></line>
   <line x1="192.5" y1="260" x2="197.5" y2="260" stroke="#3c3836"></line></g>

<g class="code block" stroke-linecap="square" stroke-width="5">
   <line x1="92.5" y1="270" x2="157.5" y2="270" stroke="#3c3836"></line></g>

<g class="code block" stroke-linecap="square" stroke-width="5">
   <line x1="92.5" y1="280" x2="152.5" y2="280" stroke="#3c3836"></line></g>
</g>
  <g class="line numbers" stroke="#3c3836" stroke-linecap="square" stroke-width="5">
   <line x1="32.5" y1="50" x2="32.5" y2="50" stroke="#3c3836"></line>
   <line x1="32.5" y1="60" x2="32.5" y2="60" stroke="#3c3836"></line>
   <line x1="32.5" y1="70" x2="32.5" y2="70" stroke="#3c3836"></line>
   <line x1="32.5" y1="80" x2="32.5" y2="80" stroke="#3c3836"></line>
   <line x1="32.5" y1="90" x2="32.5" y2="90" stroke="#3c3836"></line>
   <line x1="32.5" y1="100" x2="32.5" y2="100" stroke="#3c3836"></line>
   <line x1="32.5" y1="110" x2="32.5" y2="110" stroke="#3c3836"></line>
   <line x1="32.5" y1="120" x2="32.5" y2="120" stroke="#3c3836"></line>
   <line x1="32.5" y1="130" x2="32.5" y2="130" stroke="#3c3836"></line>
   <line x1="32.5" y1="140" x2="27.5" y2="140" stroke="#3c3836"></line>
   <line x1="32.5" y1="150" x2="27.5" y2="150" stroke="#3c3836"></line>
   <line x1="32.5" y1="160" x2="27.5" y2="160" stroke="#3c3836"></line>
   <line x1="32.5" y1="170" x2="27.5" y2="170" stroke="#3c3836"></line>
   <line x1="32.5" y1="180" x2="27.5" y2="180" stroke="#3c3836"></line>
   <line x1="32.5" y1="190" x2="27.5" y2="190" stroke="#3c3836"></line>
   <line x1="32.5" y1="200" x2="27.5" y2="200" stroke="#3c3836"></line>
   <line x1="32.5" y1="210" x2="27.5" y2="210" stroke="#3c3836"></line>
   <line x1="32.5" y1="220" x2="27.5" y2="220" stroke="#3c3836"></line>
   <line x1="32.5" y1="230" x2="27.5" y2="230" stroke="#3c3836"></line>
   <line x1="32.5" y1="240" x2="27.5" y2="240" stroke="#3c3836"></line>
   <line x1="32.5" y1="250" x2="27.5" y2="250" stroke="#3c3836"></line>
   <line x1="32.5" y1="260" x2="27.5" y2="260" stroke="#3c3836"></line>
   <line x1="32.5" y1="270" x2="27.5" y2="270" stroke="#3c3836"></line>
   <line x1="32.5" y1="280" x2="27.5" y2="280" stroke="#3c3836"></line>  </g>
</svg>